<svg width="20" height="20" viewBox="0 0 20 20" fill="none" xmlns="http://www.w3.org/2000/svg">
    <path d="M18.04 4.82018L12.28 0.790182C10.71 -0.309818 8.3 -0.249818 6.79 0.920182L1.78 4.83018C0.780002 5.61018 -0.00999832 7.21018 -0.00999832 8.47018V15.3702C-0.00999832 17.9202 2.06 20.0002 4.61 20.0002H15.39C17.94 20.0002 20.01 17.9302 20.01 15.3802V8.60018C20.01 7.25018 19.14 5.59018 18.04 4.82018ZM10.75 16.0002C10.75 16.4102 10.41 16.7502 10 16.7502C9.59 16.7502 9.25 16.4102 9.25 16.0002V13.0002C9.25 12.5902 9.59 12.2502 10 12.2502C10.41 12.2502 10.75 12.5902 10.75 13.0002V16.0002Z" fill="url(#paint0_linear_374_189)"/>
    <defs>
        <linearGradient id="paint0_linear_374_189" x1="20.01" y1="10.0013" x2="-0.00999832" y2="10.0013" gradientUnits="userSpaceOnUse">
            <stop stop-color="#FBC002"/>
            <stop offset="1" stop-color="#F46609"/>
        </linearGradient>
    </defs>
</svg>