<svg width="24" height="24" viewBox="0 0 24 24" fill="none" xmlns="http://www.w3.org/2000/svg">
    <path d="M23.0534 12.0256C23.0534 13.4937 23.1044 14.9618 23.0432 16.4299C22.9821 17.8369 22.6558 19.1928 21.8708 20.3958C20.9328 21.8232 19.5361 22.5368 17.9151 22.8427C17.1505 22.9854 16.3552 23.0873 15.5804 23.0873C12.9297 23.1077 10.279 23.1179 7.62822 23.0466C6.2111 23.0058 4.84496 22.6693 3.62154 21.8741C2.19423 20.9362 1.48057 19.5496 1.16452 17.9286C1.02179 17.164 0.919838 16.3688 0.909643 15.5939C0.889253 12.9228 0.879057 10.2415 0.950423 7.57038C0.981009 6.17365 1.32764 4.8177 2.11267 3.62487C3.05062 2.19755 4.43715 1.4737 6.05818 1.16785C6.82281 1.02512 7.61803 0.923164 8.39286 0.912969C11.0844 0.892579 13.7657 0.882384 16.4572 0.95375C17.8539 0.99453 19.1997 1.34116 20.3823 2.12619C21.7994 3.06414 22.5335 4.46087 22.8189 6.08189C22.9821 7.04023 23.0432 8.01896 23.084 8.9875C23.1248 9.99682 23.0942 11.0061 23.0942 12.0154C23.084 12.0256 23.0636 12.0256 23.0534 12.0256ZM11.951 21.5173C11.951 21.5275 11.951 21.5479 11.951 21.5581C12.9297 21.5581 13.8982 21.5785 14.877 21.5479C15.7333 21.5173 16.5897 21.4867 17.4359 21.3542C19.0569 21.0993 20.3925 20.3551 20.9736 18.7238C21.2489 17.9592 21.4528 17.1334 21.4732 16.328C21.5446 13.7078 21.5446 11.0979 21.514 8.47774C21.5038 7.62135 21.3814 6.74457 21.1877 5.90858C20.8717 4.53223 20.0765 3.49233 18.7205 3.01316C17.9559 2.73789 17.1301 2.53399 16.3247 2.5136C13.7147 2.44224 11.0844 2.44224 8.45403 2.47282C7.60783 2.48302 6.74125 2.60536 5.91544 2.78887C4.48813 3.11511 3.42784 3.96131 2.95886 5.37843C2.71418 6.12267 2.52047 6.9077 2.50008 7.68253C2.42871 10.3027 2.42871 12.9126 2.4593 15.5328C2.4695 16.3892 2.59184 17.2659 2.78554 18.1019C3.11179 19.5191 3.95798 20.559 5.36491 21.0279C6.09896 21.2726 6.88398 21.4459 7.65881 21.4867C9.08612 21.5683 10.5236 21.5173 11.951 21.5173Z" fill="#717D96"/>
    <path d="M15.1012 15.2269C15.9576 15.2269 16.814 15.2269 17.6704 15.2269C18.2209 15.2269 18.5676 15.5328 18.5676 16.0017C18.5676 16.4707 18.2311 16.7766 17.6806 16.7868C15.9576 16.7868 14.2347 16.7868 12.5015 16.7868C11.951 16.7868 11.6043 16.4809 11.5941 16.0119C11.5941 15.5532 11.9408 15.2371 12.4913 15.2269C13.3579 15.2167 14.2245 15.2269 15.1012 15.2269Z" fill="#717D96"/>
    <path d="M15.0809 9.54823C14.2143 9.54823 13.3477 9.54823 12.4709 9.54823C11.951 9.54823 11.6043 9.23218 11.5941 8.7836C11.5839 8.32482 11.9408 7.99857 12.4811 7.99857C14.2143 7.99857 15.9576 7.99857 17.6908 7.99857C18.2311 7.99857 18.5778 8.32482 18.5676 8.79379C18.5574 9.24238 18.2108 9.54823 17.6908 9.54823C16.814 9.54823 15.9474 9.54823 15.0809 9.54823Z" fill="#717D96"/>
    <path d="M6.97574 8.45735C7.54666 7.87623 8.087 7.29511 8.65793 6.76497C8.83125 6.60184 9.1269 6.49989 9.37159 6.4795C9.67744 6.44892 9.90173 6.67321 10.0037 6.95867C10.1056 7.25433 10.0547 7.53979 9.83037 7.77428C9.341 8.26365 8.86183 8.74282 8.38266 9.22199C8.0972 9.50745 7.82193 9.79291 7.53647 10.0682C7.14905 10.425 6.73105 10.425 6.35383 10.058C6.11935 9.83369 5.89505 9.6094 5.68096 9.38511C5.33432 9.02828 5.31393 8.5695 5.60959 8.25345C5.91544 7.92721 6.39461 7.9374 6.77183 8.27384C6.82281 8.32482 6.87378 8.3656 6.97574 8.45735Z" fill="#717D96"/>
    <path d="M6.97574 15.6959C7.53647 15.125 8.06661 14.554 8.63754 14.0137C8.80066 13.8608 9.02495 13.7384 9.23905 13.7078C9.56529 13.6569 9.83037 13.8404 9.9731 14.1462C10.126 14.4827 10.0445 14.7885 9.78959 15.0434C9.17788 15.6551 8.56617 16.277 7.94427 16.8887C7.79135 17.0416 7.63842 17.215 7.4651 17.3577C7.13886 17.6432 6.73105 17.6432 6.415 17.3475C6.14993 17.1028 5.89505 16.8377 5.64018 16.5829C5.32413 16.2464 5.31393 15.7876 5.61979 15.4818C5.91544 15.1759 6.37422 15.1759 6.73105 15.4818C6.80242 15.5328 6.86359 15.5939 6.97574 15.6959Z" fill="#717D96"/>
</svg>