<svg width="22" height="22" viewBox="0 0 22 22" fill="none" xmlns="http://www.w3.org/2000/svg">
    <path d="M7.55628 0.414555C10.1259 0.395088 12.6859 0.384513 15.2555 0.452641C16.5891 0.491577 17.8744 0.823232 19.0035 1.57276C20.3564 2.46826 21.0572 3.80156 21.3297 5.34913C21.4855 6.26413 21.5437 7.1988 21.5826 8.12354C21.6216 9.08708 21.5924 10.0506 21.5924 11.0142C21.5827 11.0239 21.5631 11.0239 21.5534 11.0239C21.5534 12.4255 21.602 13.8274 21.5436 15.229C21.4852 16.5723 21.174 17.8675 20.4244 19.0161C19.529 20.3787 18.1956 21.06 16.6481 21.3521C15.918 21.4883 15.1584 21.5855 14.4186 21.5855C11.8877 21.6049 9.35665 21.6145 6.82581 21.5464C5.47287 21.5074 4.16863 21.1865 3.00062 20.4272C1.63798 19.5318 0.956707 18.2082 0.654915 16.6606C0.518638 15.9306 0.421485 15.1709 0.411751 14.4312C0.392283 11.8808 0.381698 9.32035 0.449837 6.77002C0.479101 5.4366 0.810743 4.14219 1.56019 3.00342C2.45567 1.64078 3.77921 0.949766 5.32679 0.657719C6.05685 0.521442 6.81649 0.424289 7.55628 0.414555ZM7.98597 12.1753C7.78161 12.2045 7.56749 12.3213 7.41175 12.4673C6.86675 12.9831 6.3601 13.5278 5.82484 14.0728C5.71795 13.9756 5.65947 13.9173 5.59144 13.8687C5.25075 13.5766 4.8122 13.5766 4.52991 13.8687C4.23789 14.1607 4.24769 14.5992 4.54945 14.9204C4.79276 15.1637 5.03663 15.4163 5.28968 15.6499C5.59141 15.9321 5.98018 15.9322 6.29163 15.6597C6.4571 15.5234 6.60364 15.3584 6.74964 15.2124C7.34336 14.6284 7.92738 14.0347 8.51136 13.4507C8.75471 13.2073 8.83218 12.9145 8.68616 12.5933C8.54988 12.3016 8.29718 12.1268 7.98597 12.1753ZM11.0905 13.6255C10.5652 13.6354 10.2343 13.9368 10.234 14.3745C10.2437 14.8222 10.5748 15.1146 11.1002 15.1147H16.0455C16.571 15.105 16.892 14.8132 16.8922 14.3657C16.8922 13.918 16.5614 13.6255 16.0358 13.6255H11.0905ZM8.11195 5.27393C7.87845 5.29345 7.59671 5.39078 7.43128 5.54639C6.88626 6.05248 6.36985 6.60687 5.82484 7.16163C5.72758 7.07409 5.67817 7.03547 5.62952 6.98682C5.2694 6.66583 4.8121 6.65587 4.52015 6.96729C4.23798 7.26898 4.25777 7.70673 4.58851 8.04737C4.7929 8.26149 5.00723 8.47582 5.23109 8.68995C5.59125 9.04037 5.9901 9.0404 6.35999 8.69971C6.63244 8.43699 6.89516 8.16455 7.16761 7.89209C7.62507 7.43463 8.08323 6.97745 8.55042 6.51026C8.76457 6.28637 8.8128 6.01325 8.71546 5.73096C8.61808 5.45851 8.40389 5.24474 8.11195 5.27393ZM11.0807 6.72413C10.5652 6.72429 10.2245 7.03543 10.234 7.47315C10.2437 7.90132 10.5747 8.20344 11.0709 8.20362H16.0553C16.5517 8.20359 16.8825 7.91119 16.8922 7.48291C16.9018 7.03535 16.571 6.72415 16.0553 6.72413H11.0807Z" fill="url(#paint0_linear_255_1930)"/>
    <defs>
        <linearGradient id="paint0_linear_255_1930" x1="21.6029" y1="10.9998" x2="0.397095" y2="10.9998" gradientUnits="userSpaceOnUse">
            <stop stop-color="#FBC002"/>
            <stop offset="1" stop-color="#F46609"/>
        </linearGradient>
    </defs>
</svg>