<svg width="24" height="22" viewBox="0 0 24 22" fill="none" xmlns="http://www.w3.org/2000/svg">
    <path d="M22.934 6.8402C22.604 6.83019 22.274 6.83019 21.934 6.83019C21.634 6.83019 21.334 6.83019 21.044 6.8402C21.034 6.8402 21.034 6.8402 21.034 6.8402C20.624 6.8402 20.424 6.66019 20.364 6.2702C20.174 4.97019 19.984 3.8302 19.784 2.7702C19.504 1.2302 18.324 0.230195 16.784 0.210195C15.184 0.200195 13.584 0.200195 11.984 0.200195C10.384 0.200195 8.78399 0.200195 7.17399 0.210195C5.61399 0.230195 4.40399 1.2802 4.15399 2.8302C3.97398 3.9902 3.79398 5.1402 3.62398 6.3002C3.57398 6.6602 3.37398 6.8402 3.02398 6.8402C2.65399 6.83019 2.30398 6.83019 1.95398 6.83019C1.63399 6.83019 1.30398 6.83019 0.983985 6.8402C0.473985 6.8502 0.133985 7.16019 0.0939849 7.64019C0.0539849 8.05019 0.343985 8.4002 0.823985 8.5302C1.02398 8.5902 1.26399 8.8202 1.29399 9.05019C1.39399 10.1502 1.49398 11.2402 1.58398 12.3402L1.64398 13.0902C1.68398 13.5302 1.71398 13.9802 1.74398 14.4202C1.81398 15.3602 1.88398 16.3402 2.01398 17.2902C2.37398 19.9002 4.59399 21.8002 7.28399 21.8002H7.45399C8.02399 21.7802 8.60398 21.7802 9.18398 21.7802C9.65399 21.7802 10.124 21.7802 10.604 21.7902H11.774L12.014 21.7802C12.544 21.7802 13.074 21.7802 13.604 21.7902C14.134 21.7902 14.664 21.8002 15.184 21.8002C15.844 21.8002 16.494 21.7902 17.144 21.7702C19.454 21.6902 21.464 20.0102 21.924 17.7602C22.094 16.9302 22.154 16.0502 22.214 15.2002C22.234 14.9102 22.254 14.6202 22.284 14.3402C22.354 13.4702 22.424 12.6102 22.484 11.7402C22.554 10.8502 22.624 9.95019 22.704 9.05019C22.724 8.84019 22.924 8.6002 23.124 8.5402C23.674 8.3802 23.954 8.04019 23.904 7.6102C23.824 6.9802 23.334 6.8402 22.934 6.8402ZM8.93398 16.4402C8.92398 17.2602 8.38399 17.8502 7.62399 17.8802H7.57399C6.81398 17.8802 6.24399 17.2902 6.22399 16.5102C6.20399 15.0802 6.20399 13.6002 6.22399 12.1202C6.23399 11.3402 6.81398 10.7502 7.57399 10.7502C8.38399 10.7702 8.92398 11.3602 8.93398 12.1802V16.4402ZM13.344 16.4302C13.334 17.2902 12.794 17.8702 12.004 17.8802H11.994C11.214 17.8802 10.664 17.2902 10.654 16.4402C10.644 15.0202 10.644 13.6002 10.654 12.1802C10.664 11.3402 11.214 10.7502 11.994 10.7502C12.784 10.7602 13.324 11.3402 13.344 12.1602V16.4302ZM17.774 16.4902C17.764 17.2802 17.184 17.8802 16.424 17.8802H16.404C15.624 17.8602 15.074 17.2702 15.064 16.4202V12.2002C15.074 11.3502 15.624 10.7602 16.414 10.7502C17.194 10.7502 17.764 11.3402 17.774 12.1402C17.794 13.6202 17.794 15.0802 17.774 16.4902ZM5.28399 6.81019L5.33398 6.5202L5.43399 5.91019C5.50399 5.4402 5.57399 4.99019 5.65399 4.54019C5.68399 4.3402 5.71398 4.1502 5.75398 3.9502C5.79398 3.7002 5.83399 3.4502 5.87399 3.1902C6.00399 2.3702 6.52398 1.9102 7.32399 1.9102C8.89398 1.9002 10.464 1.9002 12.034 1.9002C13.594 1.9002 15.164 1.9002 16.724 1.9102C17.514 1.9102 18.004 2.3402 18.134 3.1502C18.304 4.1502 18.464 5.14019 18.614 6.14019C18.634 6.2302 18.634 6.3202 18.634 6.4202L18.644 6.54019L18.654 6.81019H5.28399Z" fill="url(#paint0_linear_188_1463)"/>
    <defs>
        <linearGradient id="paint0_linear_188_1463" x1="23.9097" y1="11.0002" x2="0.0903168" y2="11.0002" gradientUnits="userSpaceOnUse">
            <stop stop-color="#FBC002"/>
            <stop offset="1" stop-color="#F46609"/>
        </linearGradient>
    </defs>
</svg>