<svg width="22" height="20" viewBox="0 0 22 20" fill="none" xmlns="http://www.w3.org/2000/svg">
    <path d="M21.1544 6.15772C20.8588 6.14849 20.554 6.14849 20.2492 6.14849C19.9444 6.14849 19.6396 6.14849 19.3348 6.15772C19.3256 6.15772 19.3256 6.15772 19.3256 6.15772C18.9654 6.15772 18.7807 5.99147 18.7345 5.64049C18.559 4.4952 18.3835 3.43303 18.1988 2.40781C17.9402 0.976194 16.8595 0.0433337 15.4371 0.0340975C13.9593 0.0248612 12.4908 0.015625 11.013 0.015625C9.51671 0.015625 8.02044 0.0248612 6.52417 0.0340975C5.10179 0.0433337 3.99344 1.01314 3.75329 2.43552C3.55933 3.67317 3.40232 4.68916 3.26377 5.64049C3.21759 5.99147 3.03287 6.15772 2.69113 6.15772C2.35862 6.14849 2.05383 6.14849 1.74903 6.14849C1.44424 6.14849 1.13944 6.14849 0.843881 6.15772C0.354361 6.16696 0.0495649 6.42557 0.00338372 6.87815C-0.0335612 7.27531 0.23429 7.59857 0.696101 7.71865C0.87159 7.77406 1.08402 7.97726 1.11173 8.18046C1.21333 9.27957 1.30569 10.3787 1.39806 11.4778L1.435 11.875C1.47194 12.2998 1.49965 12.7154 1.52736 13.1311C1.58278 14.0085 1.64743 14.9137 1.7675 15.7911C2.10925 18.2202 4.15969 19.9844 6.635 19.9844H6.78278C7.31848 19.9659 7.84494 19.9567 8.38065 19.9567C8.81475 19.9567 9.25809 19.9659 9.69219 19.9659C10.0524 19.9659 10.4126 19.9751 10.7728 19.9751L10.9945 19.9659H12.4631C12.9526 19.9751 13.4421 19.9751 13.9316 19.9751C14.532 19.9751 15.1323 19.9751 15.7419 19.9474C17.8755 19.8828 19.7412 18.3126 20.1661 16.2252C20.3231 15.4771 20.3785 14.6828 20.4339 13.9162C20.4524 13.676 20.4709 13.4266 20.4894 13.1773C20.5632 12.3829 20.6187 11.5886 20.6833 10.7943C20.748 9.93534 20.8219 9.07637 20.8958 8.2174C20.905 8.01421 21.0989 7.7833 21.3021 7.72788C21.7732 7.58934 22.041 7.26607 21.9949 6.87815C21.9487 6.42557 21.6439 6.16696 21.1544 6.15772ZM4.84317 5.86216L4.93553 5.30799C5.00019 4.87389 5.06484 4.45825 5.12949 4.04262C5.16644 3.8579 5.19415 3.67317 5.23109 3.49769C5.26804 3.26678 5.30498 3.03587 5.34193 2.79573C5.462 2.01065 5.93305 1.59502 6.70889 1.59502H15.3078C16.0929 1.59502 16.5455 1.98294 16.6748 2.77726C16.8318 3.69165 16.9704 4.61527 17.1181 5.52966C17.1274 5.61278 17.1274 5.68667 17.1274 5.77904V6.13001H4.80623L4.84317 5.86216ZM19.2979 7.99573L19.2332 8.83623L19.0854 10.6465L18.9469 12.2444C18.873 13.1957 18.7899 14.1471 18.716 15.0984C18.5867 16.7332 17.7 17.8877 16.2684 18.2664C15.9544 18.3588 15.5941 18.3957 15.1878 18.3957C13.6176 18.405 12.0382 18.405 10.4588 18.405H6.81049C4.76928 18.3957 3.42079 17.1211 3.27301 15.0707C3.17141 13.6206 3.04211 12.1797 2.92203 10.7297C2.86662 10.0554 2.8112 9.38117 2.75578 8.70692C2.73731 8.54991 2.72807 8.39289 2.71884 8.22664L2.7096 7.9865L2.69113 7.74635H19.3164L19.2979 7.99573Z" fill="#717D96"/>
    <path d="M7.70639 11.1452V15.0059C7.70639 15.5416 7.4016 15.8834 6.91207 15.8926C6.45026 15.8926 6.127 15.5416 6.11776 15.0336C6.10852 13.7775 6.10852 12.4844 6.11776 11.099C6.127 10.5818 6.45026 10.2308 6.91207 10.2308V10.1107L6.92131 10.2308C7.39236 10.2308 7.70639 10.591 7.70639 11.1452Z" fill="#717D96"/>
    <path d="M15.8712 11.0528C15.8989 12.3921 15.8989 13.7406 15.8712 15.0706C15.8712 15.5509 15.5386 15.8926 15.0768 15.8926C14.615 15.8926 14.301 15.5324 14.2918 15.0152V11.1082C14.301 10.5818 14.6058 10.2308 15.0768 10.2308L15.0861 10.1107V10.2308C15.5479 10.2308 15.8712 10.5725 15.8712 11.0528Z" fill="#717D96"/>
    <path d="M11.7888 12.4844V13.6667C11.7888 14.11 11.7888 14.5533 11.7795 14.9874C11.7795 15.5509 11.4747 15.8926 10.9944 15.8926C10.5142 15.8926 10.2186 15.5509 10.2186 15.0152C10.2094 13.7128 10.2094 12.4105 10.2186 11.1082C10.2186 10.5725 10.5142 10.2308 10.9944 10.2308L11.0037 10.1107V10.2308C11.4747 10.2308 11.7795 10.5725 11.7795 11.1267C11.7888 11.5793 11.7888 12.0318 11.7888 12.4844Z" fill="#717D96"/>
</svg>