<svg width="23" height="23" viewBox="0 0 23 23" fill="none" xmlns="http://www.w3.org/2000/svg">
    <path d="M17 7.83325C17 6.37456 16.4205 4.97561 15.3891 3.94416C14.3576 2.91271 12.9587 2.33325 11.5 2.33325C10.0413 2.33325 8.64236 2.91271 7.61091 3.94416C6.57946 4.97561 6 6.37456 6 7.83325C6 14.2499 3.25 16.0833 3.25 16.0833H19.75C19.75 16.0833 17 14.2499 17 7.83325Z" stroke="#2D3648" stroke-width="1.83333" stroke-linecap="round" stroke-linejoin="round"/>
    <path d="M13.0858 19.75C12.9247 20.0278 12.6933 20.2584 12.415 20.4187C12.1367 20.579 11.8212 20.6634 11.5 20.6634C11.1788 20.6634 10.8633 20.579 10.5849 20.4187C10.3066 20.2584 10.0753 20.0278 9.91415 19.75" stroke="#2D3648" stroke-width="1.83333" stroke-linecap="round" stroke-linejoin="round"/>
</svg>