<svg width="6" height="11" viewBox="0 0 6 11" fill="none" xmlns="http://www.w3.org/2000/svg">
<path d="M5.52809 4.45935L1.28309 0.221849C1.21337 0.151552 1.13042 0.0957569 1.03903 0.0576804C0.947632 0.0196039 0.849603 0 0.750594 0C0.651585 0 0.553556 0.0196039 0.462162 0.0576804C0.370767 0.0957569 0.287817 0.151552 0.218094 0.221849C0.0784061 0.362371 0 0.552459 0 0.750599C0 0.948738 0.0784061 1.13883 0.218094 1.27935L3.93059 5.02935L0.218094 8.74185C0.0784061 8.88237 0 9.07246 0 9.2706C0 9.46874 0.0784061 9.65883 0.218094 9.79935C0.287555 9.87021 0.370389 9.92659 0.461796 9.96521C0.553202 10.0038 0.651364 10.0239 0.750594 10.0243C0.849825 10.0239 0.947987 10.0038 1.03939 9.96521C1.1308 9.92659 1.21363 9.87021 1.28309 9.79935L5.52809 5.56185C5.60422 5.49162 5.66498 5.40638 5.70653 5.3115C5.74809 5.21663 5.76954 5.11417 5.76954 5.0106C5.76954 4.90702 5.74809 4.80457 5.70653 4.70969C5.66498 4.61482 5.60422 4.52958 5.52809 4.45935V4.45935Z" fill="#1A202C"/>
</svg>
