<svg width="28" height="28" viewBox="0 0 28 28" fill="none" xmlns="http://www.w3.org/2000/svg">
    <path d="M6.93606 5.21036C7.21153 5.21036 7.44588 5.21036 7.68023 5.21036C13.8227 5.21036 19.9652 5.21036 26.1076 5.21036C26.3091 5.21036 26.5105 5.20214 26.7079 5.21447C27.6165 5.2597 28.1428 5.91753 27.966 6.80148C27.3164 10.0701 26.6668 13.3345 26.0007 16.599C25.5855 18.6218 24.2986 19.662 22.2223 19.662C18.0657 19.6702 13.909 19.6661 9.7565 19.662C7.63912 19.6579 6.3029 18.4409 6.00277 16.3235C5.4025 12.1052 4.76934 7.89101 4.16085 3.67269C4.1074 3.315 3.95528 3.16287 3.59348 3.1711C2.8452 3.18754 2.09692 3.18343 1.35275 3.1711C0.542799 3.16698 -0.00813203 2.64483 9.08128e-05 1.913C0.00831366 1.20584 0.54691 0.683685 1.32397 0.667239C2.14214 0.650793 2.96443 0.646682 3.7826 0.667239C5.24216 0.704242 6.29468 1.59231 6.58248 3.03131C6.71816 3.72614 6.80861 4.4333 6.93606 5.21036Z" fill="white"/>
    <path d="M21.2315 27.3463C19.4348 27.3545 17.9547 25.8867 17.9506 24.09C17.9465 22.3015 19.4348 20.8132 21.2191 20.8214C22.9912 20.8297 24.4507 22.2769 24.4754 24.053C24.5001 25.8291 23.0158 27.338 21.2315 27.3463Z" fill="white"/>
    <path d="M6.85383 24.0736C6.85795 22.3057 8.30105 20.8297 10.0237 20.8255C11.7752 20.8214 13.2389 22.318 13.2348 24.0982C13.2307 25.8579 11.7752 27.3422 10.0566 27.3463C8.30517 27.3504 6.84972 25.862 6.85383 24.0736Z" fill="white"/>
</svg>