<svg width="15" height="15" viewBox="0 0 15 15" fill="none" xmlns="http://www.w3.org/2000/svg">
<path d="M2.25 12.0043H5.43C5.5287 12.0049 5.62655 11.986 5.71793 11.9487C5.80931 11.9114 5.89242 11.8564 5.9625 11.7868L11.1525 6.58935L13.2825 4.50435C13.3528 4.43463 13.4086 4.35168 13.4467 4.26028C13.4847 4.16889 13.5043 4.07086 13.5043 3.97185C13.5043 3.87284 13.4847 3.77481 13.4467 3.68342C13.4086 3.59202 13.3528 3.50907 13.2825 3.43935L10.1025 0.221849C10.0328 0.151552 9.94983 0.0957567 9.85843 0.0576802C9.76704 0.0196037 9.66901 0 9.57 0C9.47099 0 9.37296 0.0196037 9.28157 0.0576802C9.19017 0.0957567 9.10722 0.151552 9.0375 0.221849L6.9225 2.34435L1.7175 7.54185C1.64799 7.61193 1.593 7.69504 1.55567 7.78642C1.51835 7.8778 1.49943 7.97564 1.5 8.07435V11.2543C1.5 11.4533 1.57902 11.644 1.71967 11.7847C1.86032 11.9253 2.05109 12.0043 2.25 12.0043ZM9.57 1.81185L11.6925 3.93435L10.6275 4.99935L8.505 2.87685L9.57 1.81185ZM3 8.38185L7.4475 3.93435L9.57 6.05685L5.1225 10.5043H3V8.38185ZM14.25 13.5043H0.75C0.551088 13.5043 0.360322 13.5834 0.21967 13.724C0.0790176 13.8647 0 14.0554 0 14.2543C0 14.4533 0.0790176 14.644 0.21967 14.7847C0.360322 14.9253 0.551088 15.0043 0.75 15.0043H14.25C14.4489 15.0043 14.6397 14.9253 14.7803 14.7847C14.921 14.644 15 14.4533 15 14.2543C15 14.0554 14.921 13.8647 14.7803 13.724C14.6397 13.5834 14.4489 13.5043 14.25 13.5043Z" fill="#F46609"/>
</svg>
