<svg width="20" height="20" viewBox="0 0 20 20" fill="none" xmlns="http://www.w3.org/2000/svg">
<path d="M16.6667 10V18.3333H3.33333V10" stroke="#FEF0E6" stroke-width="1.66667" stroke-linecap="round" stroke-linejoin="round"/>
<path d="M18.3333 5.83301H1.66667V9.99967H18.3333V5.83301Z" stroke="#FEF0E6" stroke-width="1.66667" stroke-linecap="round" stroke-linejoin="round"/>
<path d="M10 18.333V5.83301" stroke="#FEF0E6" stroke-width="1.66667" stroke-linecap="round" stroke-linejoin="round"/>
<path d="M10 5.83366H13.75C14.3025 5.83366 14.8324 5.61417 15.2231 5.22346C15.6138 4.83276 15.8333 4.30286 15.8333 3.75033C15.8333 3.19779 15.6138 2.66789 15.2231 2.27719C14.8324 1.88649 14.3025 1.66699 13.75 1.66699C10.8333 1.66699 10 5.83366 10 5.83366Z" stroke="#FEF0E6" stroke-width="1.66667" stroke-linecap="round" stroke-linejoin="round"/>
<path d="M10 5.83366H6.25C5.69747 5.83366 5.16756 5.61417 4.77686 5.22346C4.38616 4.83276 4.16667 4.30286 4.16667 3.75033C4.16667 3.19779 4.38616 2.66789 4.77686 2.27719C5.16756 1.88649 5.69747 1.66699 6.25 1.66699C9.16667 1.66699 10 5.83366 10 5.83366Z" stroke="#FEF0E6" stroke-width="1.66667" stroke-linecap="round" stroke-linejoin="round"/>
</svg>
